<?xml version="1.0" encoding="utf-8"?>
<!-- Generator: Adobe Illustrator 17.1.0, SVG Export Plug-In . SVG Version: 6.00 Build 0)  -->
<!DOCTYPE svg PUBLIC "-//W3C//DTD SVG 1.1//EN" "http://www.w3.org/Graphics/SVG/1.1/DTD/svg11.dtd">
<svg version="1.1" xmlns="http://www.w3.org/2000/svg" xmlns:xlink="http://www.w3.org/1999/xlink" x="0px" y="0px"
	 viewBox="0 0 100 100" enable-background="new 0 0 100 100" xml:space="preserve">

<g id="Calque_5">
	<g id="snOqJp_1_">
		<g>
			<path fill="#FFFFFF" d="M49.3,87.9c-0.2-1.1-0.9-2.3-0.6-3.3c1.7-5.1,0.7-8.1-3.6-11.1c-0.8-0.6-1.4-1.7-1.7-2.7
				c-1.1-3.6-3.2-6.1-7.2-6.4c-0.5,0-1.3,0.1-1.4-0.1c-1.9-3.8-5.9-4-9.1-5.8c-5.2-2.9-6.5-3.3-10.6,1c-6.1-3.8-6.2-4.1-3.4-10.7
				c3.2-7.3,6.5-14.6,9.4-22c1.3-3.3,3.3-4.7,7.5-4.4c-1.5,3.7-2.9,7.1-4.4,10.5c-1.9,4.3-0.2,8.1,4.4,9.5c5.4,1.6,9.5-0.7,13.1-4.4
				c5-5.2,5.5-5.3,11.2-1c9.5,7.3,19,14.8,28.4,22.3c3.5,2.7,4.3,5.5,2.8,8.3c-1.6,3-3.9,3.7-7.6,2.7c-0.1,3.1-1,6.7-3.3,8.1
				c-3.1,2-5.4,1.2-8.1-1.2c-0.4,1.6-0.7,2.8-0.9,4c-0.7,3.2-3.3,5.3-5.7,4.7c-3.5-0.8-4.8,0.3-7.1,2C50.7,87.9,50,87.9,49.3,87.9z"
				/>
			<path fill="#FFFFFF" d="M52.1,12.8c8,2.7,15.9,5.6,23.9,8.2c2.3,0.8,3.5,2,4.2,4.4c2.4,8,5,15.9,7.5,23.8
				c0.5,1.7,1.7,3.6-0.7,5.1c-2.2,1.4-3.8,0.2-5.4-1.1c-9-7.2-18.1-14.4-27.1-21.7c-3.1-2.4-6.3-4.6-10.4-2.9
				c-1.1,0.5-2,1.7-2.9,2.6c-2.5,2.3-4.7,4.9-7.5,6.7c-1,0.6-3.5-0.2-4.7-1.2c-0.7-0.5-0.4-2.8,0-4c1.1-3.6,2.8-7,3.8-10.7
				c0.7-2.7,2.2-4.4,4.8-5.2c3.9-1.3,7.8-2.7,11.7-4C50.2,12.8,51.2,12.8,52.1,12.8z"/>
			<path fill="#FFFFFF" d="M1.3,48.5c0.5-6.7,1-13.5,1.5-20.2c0.1-1.2,0-2.4,0.2-3.6c0.7-3.2,2.5-5.5,6-5.6c2.8-0.1,5.6,0.4,8.9,0.7
				c-0.8,2.2-1.3,3.8-1.9,5.3c-3.2,8.1-6.5,16.1-9.8,24.1c-1.6,3.9-2.4,4-5,0.7C1.3,49.5,1.3,49,1.3,48.5z"/>
			<path fill="#FFFFFF" d="M98.7,27.8c-0.3,6.6-0.4,13.3-0.9,19.9c-0.1,1.7-1,3.4-1.6,5.1c-0.4-0.1-0.8-0.1-1.2-0.2
				c-0.4-0.7-0.8-1.4-1.1-2.1c-3-9-5.9-18.1-8.9-27.1c-0.9-2.7-0.6-3.9,2.6-4.2c7.2-0.6,8.4-0.1,11.1,6.4
				C98.7,26.4,98.7,27.1,98.7,27.8z"/>
			<path fill="#FFFFFF" d="M31.7,69.3c2.5,0.4,5.5,0,6.6,1.3c1.5,1.6,1.4,4.6,2.1,7.4c2-0.1,5.4-0.7,5.7,3.7c0.2,2.6-2,5.3-4.2,5.4
				c-3.9,0.1-4-2.9-4.3-5.7c-6,1.7-7.9,0.5-8.5-5.1c-2.2-0.4-4.9-0.1-6.1-1.2c-1.4-1.3-1.4-3.9-2.3-5.5c-1.4-1.4-3.5-2.7-4-4.4
				c-0.3-1.1,1.3-3.7,2.6-4.2c2.8-1.1,4,1.1,4.3,3.6C29.4,63.2,30.5,64,31.7,69.3z"/>
		</g>
	</g>
</g>

</svg>
