<?xml version="1.0" encoding="utf-8"?>
<!-- Generator: Adobe Illustrator 17.1.0, SVG Export Plug-In . SVG Version: 6.00 Build 0)  -->
<!DOCTYPE svg PUBLIC "-//W3C//DTD SVG 1.1//EN" "http://www.w3.org/Graphics/SVG/1.1/DTD/svg11.dtd">
<svg version="1.1" xmlns="http://www.w3.org/2000/svg" xmlns:xlink="http://www.w3.org/1999/xlink" x="0px" y="0px"
	 viewBox="0 0 100 100" enable-background="new 0 0 100 100" xml:space="preserve">

<g id="Calque_3">
	<g>
		<path fill="#FFFFFF" d="M98.5,69.1c0,1.1,0,2,0,3c-2.2,0-4.2,0-6.3,0c-1,0-2,0-3,0c-1,0.1-1.6,0.7-1.5,1.6
			c0.1,0.9,0.6,1.4,1.6,1.4c2.6,0,5.2,0,7.8,0c0.4,0,0.9,0,1.4,0c0.2,1.9-0.1,3.6-1,5.3c-1.7,3.3-4.5,5.2-8.2,5.4
			c-0.4,0-0.8,0-1.2,0c-25.4,0-50.9,0-76.3,0c-3.3,0-6.1-1.1-8.3-3.7c-1.4-1.7-2.1-3.6-2.1-5.8c0-16.3,0-32.7,0-49
			c0-5.1,4.2-9.4,9.4-9.5c2.6-0.1,5.3,0,7.9,0c23.2,0,46.4,0,69.6,0c5,0,9.1,3.2,10,7.7c0.2,0.8,0.2,1.6,0.2,2.4
			c0,12.2,0,24.4,0,36.6c0,1.1-0.3,1.4-1.4,1.4c-2.5-0.1-5,0-7.5,0c-0.7,0-1.4,0.1-1.8,0.9c-0.5,1.1,0.2,2.2,1.7,2.2
			c2.5,0,5.1,0,7.6,0C97.6,69.1,98,69.1,98.5,69.1z M35.6,75.8c13.2,0,24-10.7,24-23.9c0-13.2-10.8-24.1-24-24
			c-13.1,0-24,10.9-23.9,24C11.8,65,22.5,75.8,35.6,75.8z M77.7,27.6c-2.6,0-5.1,0-7.7,0c-1.9,0-3,1.1-3,3c0,2,0,3.9,0,5.9
			c0,1.7,1.1,2.9,2.9,2.9c5.2,0,10.5,0,15.7,0c1.9,0,2.9-1.2,2.9-3c0-1.9,0-3.8,0-5.7c0-2-1.1-3.1-3.1-3.1
			C82.9,27.6,80.3,27.6,77.7,27.6z"/>
		<path fill="#FFFFFF" d="M29.9,14.6c-5.1,0-10.1,0-15.3,0c0.1-1.3,0.1-2.6,0.4-3.7c0.3-1.2,1.4-1.9,2.7-1.9c3.1,0,6.1-0.1,9.2,0
			c1.7,0,2.9,1.3,3,3C29.9,12.7,29.9,13.6,29.9,14.6z"/>
		<path fill="#FFFFFF" d="M53.3,51.9c0,8.9-6.9,17.5-17.6,17.5c-10.6,0-17.7-8.6-17.6-17.6c0.1-9.8,7.9-17.6,17.6-17.5
			C45.5,34.3,53.3,42.2,53.3,51.9z M35.7,65.1c7.4,0,13.3-5.9,13.3-13.3c0-7.4-6-13.3-13.3-13.3c-7.3,0-13.3,6-13.3,13.3
			C22.4,59.2,28.3,65.1,35.7,65.1z"/>
	</g>
</g>

</svg>
