<?xml version="1.0" encoding="utf-8"?>
<!-- Generator: Adobe Illustrator 17.1.0, SVG Export Plug-In . SVG Version: 6.00 Build 0)  -->
<!DOCTYPE svg PUBLIC "-//W3C//DTD SVG 1.1//EN" "http://www.w3.org/Graphics/SVG/1.1/DTD/svg11.dtd">
<svg version="1.1" xmlns="http://www.w3.org/2000/svg" xmlns:xlink="http://www.w3.org/1999/xlink" x="0px" y="0px"
	 viewBox="0 0 100 100" enable-background="new 0 0 100 100" xml:space="preserve">

<g id="Calque_2">
	<g id="syNrpZ_1_">
		<g>
			<path fill="#FFFFFF" d="M48.4,80.6c-2.2-0.2-4.5-0.3-6.7-0.6c-5.9-0.7-11.6-2.2-17-4.9c-0.1-0.1-0.2-0.1-0.4-0.2
				c-2.3-0.8-3.3-2.4-3.1-4.8c0.1-0.7,0-1.5,0-2.2c-0.1-4.5,2.5-7.3,6.3-8.9c3.1-1.3,6.4-2,9.6-3c1.2-0.4,2.3-0.7,3.4-1.2
				c1.4-0.6,2.1-1.7,2-3.2c0-0.3-0.1-0.7-0.3-1c-1.8-2.5-2.8-5.2-3.5-8.1c-0.1-0.4-0.3-0.7-0.6-1c-1.6-1.4-2.4-3.2-2.6-5.2
				c-0.1-0.8,0.1-1.4,1.2-1.4c-0.1-1.6-0.4-3.2-0.4-4.9c-0.1-4.3,1.2-8,5.2-10c4.4-2.2,8.9-2.2,13.3,0c1,0.5,2.2,0.8,3.3,1.3
				c3,1.4,4.6,3.9,4.9,7.1c0.2,2,0,4.1,0,6.3c0.9,0.2,0.9,0.9,0.8,1.7c-0.3,2-0.6,4.1-2.5,5.3c-0.2,0.1-0.2,0.5-0.3,0.8
				c-0.6,2.1-1.2,4.2-1.8,6.2c-0.2,0.6-0.6,1.2-1.1,1.7c-1.1,1.4-0.9,3.2,0.7,4.1c1,0.6,2.2,1.1,3.4,1.4c2.8,0.8,5.6,1.4,8.3,2.3
				c2.5,0.8,4.8,2.1,6.4,4.2c2,2.6,1.8,5.6,1.7,8.6c-0.1,2.4-1.5,3.6-3.4,4.5c-4.9,2.4-10,3.8-15.3,4.5c-2.4,0.3-4.9,0.5-7.4,0.7
				c-0.3,0-0.6,0.1-0.9,0.1C50.6,80.6,49.5,80.6,48.4,80.6z"/>
			<path fill="#FFFFFF" d="M1,63.9c0.1-0.3,0.2-0.6,0.2-0.9c0-2.8,1.4-4.8,3.8-5.9c2.4-1.1,5-1.8,7.5-2.6c1-0.3,2-0.5,2.9-1
				c1.7-0.8,1.8-2.1,0.9-3.6c-0.8-1.5-1.3-3.2-2-4.7c-0.3-0.6-0.6-1.3-1-1.8c-0.8-1-1.4-2.1-1.5-3.4c-0.1-0.7,0-1.2,0.6-1.3
				c0-1.7-0.1-3.3,0-4.9c0.3-3.8,2.9-6.4,6.7-7c2.7-0.4,5.2-0.1,7.5,1.4c0.2,0.1,0.4,0.2,0.6,0.2c2.7,0.3,4.7,3.2,4.9,5.8
				c0,0.5,0,1,0.1,1.5c0.2,1.1-0.4,2.3,0.4,3.4c0.6,0.8-0.5,3.4-1.4,4.3c-0.3,0.3-0.6,0.7-0.7,1.1c-0.5,2.2-0.9,4.3-2.4,6
				c-0.5,0.6-0.2,1.8,0.5,2.3c0.8,0.6,1.7,1,2.7,1.5c-0.4,0.1-0.8,0.3-1.1,0.4c-3.3,1-6.2,2.6-8.7,5.1c-2.6,2.7-3.2,6-3.1,9.6
				c0,1,0.1,1.9,0.1,3c-1.2-0.1-2.2-0.2-3.3-0.4c-4.3-0.7-8.5-1.8-12.4-3.9c-1.1-0.6-1.6-1.4-1.6-2.7c0-0.3-0.1-0.7-0.2-1
				C1,64.3,1,64.1,1,63.9z"/>
			<path fill="#FFFFFF" d="M81.5,72.4c1.1-9.5-1.6-14.8-12.7-18.2c0.5-0.2,0.8-0.4,1.2-0.5c1.9-0.8,2.2-2,1.3-3.8
				c-0.9-1.6-1.4-3.4-2.1-5c-0.2-0.5-0.5-1-0.8-1.4c-1-1.1-1.5-2.3-1.6-3.7c0-0.4,0.4-0.8,0.6-1.2c0-1.5-0.1-3.1,0-4.6
				c0.4-4,2.6-6.4,6.7-7.1c2.6-0.4,5-0.1,7.3,1.2c0.2,0.1,0.5,0.3,0.7,0.3c3.5,0.6,5.3,4,5.1,7.6c0,0.5-0.1,1,0,1.4
				c0,0.6-0.4,1.3,0.5,1.6c0.1,0,0.1,0.4,0,0.7c-0.2,1.5-0.4,3-1.8,4c-0.2,0.2-0.3,0.6-0.4,0.9c-0.4,2.1-0.9,4.2-2.4,6
				c-0.6,0.7-0.3,2.1,0.7,2.6c1.2,0.6,2.4,1,3.7,1.4c2,0.6,4.1,1.1,6.1,1.8c3.7,1.5,5.2,4.1,5,8.1c-0.1,2.2-1,3.5-3,4.4
				C91.1,70.9,86.5,71.9,81.5,72.4z"/>
		</g>
	</g>
</g>

</svg>
