<?xml version="1.0" encoding="utf-8"?>
<!-- Generator: Adobe Illustrator 17.1.0, SVG Export Plug-In . SVG Version: 6.00 Build 0)  -->
<!DOCTYPE svg PUBLIC "-//W3C//DTD SVG 1.1//EN" "http://www.w3.org/Graphics/SVG/1.1/DTD/svg11.dtd">
<svg version="1.1" id="Calque_1" xmlns="http://www.w3.org/2000/svg" xmlns:xlink="http://www.w3.org/1999/xlink" x="0px" y="0px"
	 viewBox="0 0 100 100" enable-background="new 0 0 100 100" xml:space="preserve">
<g id="ekgqee_1_">
	<g>
		<path fill="#FFFFFF" d="M5.4,72c0-14.5,0-29.1,0-43.6c0.1-0.2,0.1-0.3,0.2-0.5c0.6-3,2.4-4.9,5.3-5.8c0.8-0.2,1.6-0.4,2.4-0.5
			c16.3,0,32.7,0,49,0c0.3,0.1,0.6,0.1,0.8,0.2c3.8,0.5,6.3,2.8,7,6.3c0.1,0.8,0.1,1.6,0.1,2.4c0,13.2,0,26.3,0,39.5
			c0,0.6,0,1.1-0.1,1.7c-0.3,2.9-1.6,5.1-4.3,6.2c-1.3,0.5-2.9,0.9-4.3,0.9c-15.8,0.1-31.6,0-47.4,0c-0.3,0-0.5,0-0.8,0
			c-4.1-0.1-6.9-2.5-7.8-6.5C5.5,72.1,5.4,72,5.4,72z"/>
		<path fill="#FFFFFF" d="M95,21.7c0,19,0,37.9,0,56.9c-6.4-5.1-12.9-10.1-19.3-15.2C75.2,63.1,75,62.6,75,62c0-7.8,0-15.7,0-23.5
			c0-0.7,0.2-1.1,0.8-1.5c4.3-3.4,8.5-6.8,12.8-10.2C90.7,25.1,92.9,23.4,95,21.7z"/>
	</g>
</g>
</svg>
