<?xml version="1.0" encoding="utf-8"?>
<!-- Generator: Adobe Illustrator 17.1.0, SVG Export Plug-In . SVG Version: 6.00 Build 0)  -->
<!DOCTYPE svg PUBLIC "-//W3C//DTD SVG 1.1//EN" "http://www.w3.org/Graphics/SVG/1.1/DTD/svg11.dtd">
<svg version="1.1" xmlns="http://www.w3.org/2000/svg" xmlns:xlink="http://www.w3.org/1999/xlink" x="0px" y="0px"
	 viewBox="0 0 100 100" enable-background="new 0 0 100 100" xml:space="preserve">
<g id="Calque_1">
	<g id="ZgiM1a_1_">
		<g>
			<path fill="#FFFFFF" d="M19.2,59.6c0-10.8,0-21.5,0-32.3c0-4,3.3-7.3,7.3-7.3h46.1c4,0,7.3,3.3,7.3,7.3v32.2
				c-0.3,0.1-0.6,0.2-0.9,0c-2.3-1.7-5.4-1.7-7.7-0.1c-0.4,0.3-0.6,0.2-0.9,0.1c0.1-1,0.2-2,0.3-2.9c0-0.2,0.2-0.4,0.3-0.5
				c0.8-0.7,1.5-1.3,2.3-1.9c0.4-0.3,0.5-0.6,0.5-1.1c0-2.8,0-5.7,0-8.5c0-1,0-2.1,0-3.1c-1.7-0.4-3.4-0.7-5.1-1
				c-0.9,1.4-1.8,2.8-2.7,4.2c-0.9-1.3-1.7-2.6-2.5-3.8c-0.1-0.2-0.4-0.4-0.5-0.4c-4.1,0-8.3,0-12.4,0c-0.1,0-0.3,0.1-0.4,0.2
				c-0.6,1.1-1.1,2.2-1.7,3.3H60c0.6,5.2,1.1,10.4,1.7,15.7c-0.3,0-0.6,0-0.9,0c-13.7,0-27.3,0-41,0C19.7,59.7,19.5,59.7,19.2,59.6z
				 M66,37.6c2.5,0,4.7-2,4.7-4.6c0-2.7-1.9-4.7-4.7-4.7c-2.7,0-4.7,1.9-4.7,4.7C61.3,35.5,63.3,37.5,66,37.6z"/>
			<path fill="#FFFFFF" d="M28.7,80.7c-1.4-0.3-2.7-0.7-3.8-1.6c-2.3-1.9-3.2-5.1-2-8.1c1-2.6,3.9-4.5,6.8-4.4
				c3.1,0.2,5.6,2.1,6.5,5c0.8,2.8-0.2,5.9-2.6,7.7c-1,0.8-2.2,1.1-3.4,1.4C29.7,80.7,29.2,80.7,28.7,80.7z"/>
			<path fill="#FFFFFF" d="M69,80.7c-1.2-0.3-2.3-0.6-3.3-1.3c-2.2-1.6-3.4-4.5-2.7-7.3c0.6-2.7,2.9-4.9,5.5-5.3
				c3.9-0.7,7.5,1.8,8.2,5.6c0.7,4-1.8,7.5-5.8,8.2c-0.1,0-0.2,0.1-0.3,0.1C70.1,80.7,69.5,80.7,69,80.7z"/>
			<path fill="#FFFFFF" d="M48.9,80.7c-0.7-0.2-1.5-0.3-2.1-0.6c-3.7-1.6-5.2-5.9-3.4-9.5c1.7-3.5,6.1-4.9,9.6-3.1
				c2.6,1.4,4.1,4.3,3.6,7.4c-0.4,2.9-2.8,5.3-5.8,5.8c-0.1,0-0.3,0.1-0.4,0.1C49.8,80.7,49.4,80.7,48.9,80.7z"/>
		</g>
	</g>
</g>
</svg>
