<?xml version="1.0" encoding="utf-8"?>
<!-- Generator: Adobe Illustrator 17.1.0, SVG Export Plug-In . SVG Version: 6.00 Build 0)  -->
<!DOCTYPE svg PUBLIC "-//W3C//DTD SVG 1.1//EN" "http://www.w3.org/Graphics/SVG/1.1/DTD/svg11.dtd">
<svg version="1.1" xmlns="http://www.w3.org/2000/svg" xmlns:xlink="http://www.w3.org/1999/xlink" x="0px" y="0px"
	 viewBox="0 0 100 100" enable-background="new 0 0 100 100" xml:space="preserve">

<g id="Calque_11">
	<g id="a7cgdJ_1_">
		<g>
			<path fill="#FFFFFF" d="M75.9,48.6c2.3,1,3.7,2.5,3.6,5c0,2.1-1.3,3.4-4.5,4.8c2,1.7,2.9,3.7,1.6,6.2c-1.2,2.4-3.4,3-6.1,3
				c0.4,0.4,0.7,0.7,0.9,1c2.2,2.8,0.9,6.7-2.6,7.7c-0.7,0.2-1.4,0.3-2.1,0.3c-2.5,0-5.1,0-7.6,0c-4.9-0.1-9.6-1.2-14-3.5
				c-2.7-1.4-5.5-2.5-8.5-3c-0.6-0.1-1.3-0.2-1.9-0.2c-0.5,0-0.7-0.1-0.7-0.7c0-8,0-16.1,0-24.1c0-0.6,0.4-0.6,0.8-0.7
				c4.6-1.3,8.2-4,10.8-8c1.4-2.3,1.8-4.8,1.5-7.4c-0.4-3.1-0.9-6.1-1.3-9.2c-0.4-2.7,1.2-4.5,4.1-4.6c4.2-0.1,7.5,2.4,8.5,6.7
				c0.4,1.4,0.5,2.8,0.6,4.3c0.2,2.2,0.1,4.5,0.3,6.7c0.3,2.9,1.8,4.5,4.7,4.8c2.2,0.3,4.5,0.2,6.8,0.3c1.4,0.1,2.8,0,4.2,0.2
				c2.4,0.4,4.1,2.3,4.5,4.7c0.3,2-0.9,4.2-3,5.3C76.4,48.4,76.2,48.5,75.9,48.6z"/>
			<path fill="#FFFFFF" d="M31.7,59.7c0,4.5,0,8.9,0,13.4c0,2.2-1.4,3.6-3.6,3.6c-1.4,0-2.9,0-4.3,0c-0.9,0-1.7-0.3-2.4-1
				c-0.7-0.7-1-1.6-1-2.6c0-6.9,0-13.7,0-20.6c0-2.1,0-4.3,0-6.4c0-2.1,1.4-3.5,3.5-3.5c1.4,0,2.8,0,4.2,0c2.2,0,3.6,1.4,3.6,3.6
				C31.7,50.7,31.7,55.2,31.7,59.7z"/>
		</g>
	</g>
</g>

</svg>
