<?xml version="1.0" encoding="utf-8"?>
<!-- Generator: Adobe Illustrator 17.1.0, SVG Export Plug-In . SVG Version: 6.00 Build 0)  -->
<!DOCTYPE svg PUBLIC "-//W3C//DTD SVG 1.1//EN" "http://www.w3.org/Graphics/SVG/1.1/DTD/svg11.dtd">
<svg version="1.1" xmlns="http://www.w3.org/2000/svg" xmlns:xlink="http://www.w3.org/1999/xlink" x="0px" y="0px"
	 viewBox="0 0 100 100" enable-background="new 0 0 100 100" xml:space="preserve">

<g id="Calque_6">
	<g id="iSzbi5_1_">
		<g>
			<path fill="#eb2259" d="M57.9,37.5c-3.4-5.6-6.7-11.3-10-17c-1.5-2.5-1-4.6,1.6-6.1C57,10.2,64.4,5.8,71.9,1.6
				c2.5-1.4,4.5-0.8,6,1.8c3.1,5.5,6.3,10.9,9.4,16.3c1.5,2.6,1.6,4.8-1.3,6.5c-7.3,4.2-14.7,8.3-21.9,12.6
				C60.6,40.8,58.6,38.6,57.9,37.5z"/>
			<path fill="#eb2259" d="M54.2,40.4c-7.2,4.1-14,8-20.9,11.9c-2.3,1.3-4.1,0.6-5.4-1.6c-2.2-3.7-4.4-7.4-6.5-11.1
				c-1.3-2.4-0.8-4.4,1.6-5.8C29.7,30,36.5,26.1,43.5,22C47.1,28.1,50.5,34,54.2,40.4z"/>
			<path fill="#eb2259" d="M54.3,46.4c0,11.6,0.1,23.3-0.1,34.9c0,1-0.6,3.1-2.5,3.1c-2.4,0-2.6-2.2-2.6-3.3
				c-0.2-10.2-0.3-21.2,0.1-31.4L54.3,46.4z"/>
			<path fill="#eb2259" d="M17.4,41.9c2.2,3.9,4.3,7.3,6.5,11.2c-3.4,2-6.6,4-10,5.6c-0.9,0.4-2.9-0.2-3.6-1.1
				c-1.5-1.8-2.8-4-3.6-6.2c-0.4-1.1,0.3-3.2,1.2-3.9C10.8,45.4,13.9,43.9,17.4,41.9z"/>
			<path fill="#eb2259" d="M44.3,69.9v9.9c0,0-8.2,11.5-11,15.6c-1.2,1.7-2.7,3.9-4.8,2c-2.1-1.9-0.8-3.3,0.2-4.8
				C33.6,85.2,38.7,77.9,44.3,69.9z"/>
			<path fill="#eb2259" d="M58.9,69.9v9.9c0,0,8.2,11.5,11,15.6c1.2,1.7,2.7,3.9,4.8,2c2.1-1.9,0.8-3.3-0.2-4.8
				C69.6,85.2,64.5,77.9,58.9,69.9z"/>
			<path fill="#eb2259" d="M54.3,46.4"/>
			<path fill="#eb2259" d="M49.1,50.5"/>
		</g>
	</g>
</g>

</svg>
