<?xml version="1.0" encoding="utf-8"?>
<!-- Generator: Adobe Illustrator 17.1.0, SVG Export Plug-In . SVG Version: 6.00 Build 0)  -->
<!DOCTYPE svg PUBLIC "-//W3C//DTD SVG 1.1//EN" "http://www.w3.org/Graphics/SVG/1.1/DTD/svg11.dtd">
<svg version="1.1" xmlns="http://www.w3.org/2000/svg" xmlns:xlink="http://www.w3.org/1999/xlink" x="0px" y="0px"
	 viewBox="0 0 100 100" enable-background="new 0 0 100 100" xml:space="preserve">
<g id="Calque_3">
	<g id="Calque_2_1_">
		<g id="syNrpZ_2_">
			<g>
				<path fill="#FFFFFF" d="M48.4,76.9c-1.9-0.2-3.8-0.3-5.7-0.5c-5-0.6-9.9-1.9-14.5-4.2c-0.1-0.1-0.2-0.1-0.3-0.2
					c-2-0.7-2.8-2-2.6-4.1c0.1-0.6,0-1.3,0-1.9c-0.1-3.8,2.1-6.2,5.4-7.6c2.6-1.1,5.5-1.7,8.2-2.6c1-0.3,2-0.6,2.9-1
					c1.2-0.5,1.8-1.5,1.7-2.7c0-0.3-0.1-0.6-0.3-0.9c-1.5-2.1-2.4-4.4-3-6.9c-0.1-0.3-0.3-0.6-0.5-0.9c-1.4-1.2-2-2.7-2.2-4.4
					c-0.1-0.7,0.1-1.2,1-1.2c-0.1-1.4-0.3-2.7-0.3-4.2c-0.1-3.7,1-6.8,4.4-8.5c3.8-1.9,7.6-1.9,11.3,0c0.9,0.4,1.9,0.7,2.8,1.1
					c2.6,1.2,3.9,3.3,4.2,6.1c0.2,1.7,0,3.5,0,5.4c0.8,0.2,0.8,0.8,0.7,1.5c-0.3,1.7-0.5,3.5-2.1,4.5c-0.2,0.1-0.2,0.4-0.3,0.7
					c-0.5,1.8-1,3.6-1.5,5.3c-0.2,0.5-0.5,1-0.9,1.5c-0.9,1.2-0.8,2.7,0.6,3.5c0.9,0.5,1.9,0.9,2.9,1.2c2.4,0.7,4.8,1.2,7.1,2
					c2.1,0.7,4.1,1.8,5.5,3.6c1.7,2.2,1.5,4.8,1.5,7.3c-0.1,2-1.3,3.1-2.9,3.8c-4.2,2-8.5,3.2-13.1,3.8c-2,0.3-4.2,0.4-6.3,0.6
					c-0.3,0-0.5,0.1-0.8,0.1C50.3,76.9,49.3,76.9,48.4,76.9z"/>
				<path fill="#FFFFFF" d="M7.9,62.6c0.1-0.3,0.2-0.5,0.2-0.8c0-2.4,1.2-4.1,3.2-5c2-0.9,4.3-1.5,6.4-2.2c0.9-0.3,1.7-0.4,2.5-0.9
					c1.5-0.7,1.5-1.8,0.8-3.1c-0.7-1.3-1.1-2.7-1.7-4c-0.3-0.5-0.5-1.1-0.9-1.5c-0.7-0.9-1.2-1.8-1.3-2.9c-0.1-0.6,0-1,0.5-1.1
					c0-1.5-0.1-2.8,0-4.2c0.3-3.2,2.5-5.5,5.7-6c2.3-0.3,4.4-0.1,6.4,1.2c0.2,0.1,0.3,0.2,0.5,0.2c2.3,0.3,4,2.7,4.2,4.9
					c0,0.4,0,0.9,0.1,1.3c0.2,0.9-0.3,2,0.3,2.9c0.5,0.7-0.4,2.9-1.2,3.7c-0.3,0.3-0.5,0.6-0.6,0.9c-0.4,1.9-0.8,3.7-2,5.1
					c-0.4,0.5-0.2,1.5,0.4,2c0.7,0.5,1.5,0.9,2.3,1.3c-0.3,0.1-0.7,0.3-0.9,0.3c-2.8,0.9-5.3,2.2-7.4,4.4c-2.2,2.3-2.7,5.1-2.6,8.2
					c0,0.9,0.1,1.6,0.1,2.6c-1-0.1-1.9-0.2-2.8-0.3c-3.7-0.6-7.3-1.5-10.6-3.3c-0.9-0.5-1.4-1.2-1.4-2.3c0-0.3-0.1-0.6-0.2-0.9
					C7.9,63,7.9,62.8,7.9,62.6z"/>
				<path fill="#FFFFFF" d="M76.6,69.9c0.9-8.1-1.4-12.6-10.8-15.5c0.4-0.2,0.7-0.3,1-0.4c1.6-0.7,1.9-1.7,1.1-3.2
					c-0.8-1.4-1.2-2.9-1.8-4.3c-0.2-0.4-0.4-0.9-0.7-1.2c-0.9-0.9-1.3-2-1.4-3.2c0-0.3,0.3-0.7,0.5-1c0-1.3-0.1-2.6,0-3.9
					c0.3-3.4,2.2-5.5,5.7-6.1c2.2-0.3,4.3-0.1,6.2,1c0.2,0.1,0.4,0.3,0.6,0.3c3,0.5,4.5,3.4,4.4,6.5c0,0.4-0.1,0.9,0,1.2
					c0,0.5-0.3,1.1,0.4,1.4c0.1,0,0.1,0.3,0,0.6c-0.2,1.3-0.3,2.6-1.5,3.4c-0.2,0.2-0.3,0.5-0.3,0.8c-0.3,1.8-0.8,3.6-2,5.1
					c-0.5,0.6-0.3,1.8,0.6,2.2c1,0.5,2,0.9,3.2,1.2c1.7,0.5,3.5,0.9,5.2,1.5c3.2,1.3,4.4,3.5,4.3,6.9c-0.1,1.9-0.9,3-2.6,3.8
					C84.8,68.6,80.9,69.4,76.6,69.9z"/>
			</g>
		</g>
	</g>
</g>
</svg>
