<?xml version="1.0" encoding="utf-8"?>
<!-- Generator: Adobe Illustrator 17.1.0, SVG Export Plug-In . SVG Version: 6.00 Build 0)  -->
<!DOCTYPE svg PUBLIC "-//W3C//DTD SVG 1.1//EN" "http://www.w3.org/Graphics/SVG/1.1/DTD/svg11.dtd">
<svg version="1.1" xmlns="http://www.w3.org/2000/svg" xmlns:xlink="http://www.w3.org/1999/xlink" x="0px" y="0px"
	 viewBox="0 0 100 100" enable-background="new 0 0 100 100" xml:space="preserve">

<g id="Calque_8">
	<rect fill="#C4CCDF" width="100" height="100"/>
	<g>
		<path fill="none" d="M50.1-5.6v13c3.2,0,6.3,0.7,9.3,1.9c3.2,1.2,6.1,3.1,8.7,5.3c2.3,2,2.9,5.1,3.5,8c1,4.5,1.7,9.2,2.1,13.8
			C74,40.8,75.6,45,77,49.2c1.1,3.2,3.5,5.7,6.1,7.9c0.4,0.4,0.9,0.8,1.3,1.2c-2.4-0.7-4.4-1.9-6.3-3.5c-0.3-0.2-0.5-0.7-0.9-0.4
			c-0.3,0.3-0.1,0.7,0,1.1c0.4,1.3,1.4,2.2,2.3,3.3c-1,0.2-1.6-0.3-2.2-0.6c-0.7-0.3-0.9-0.1-1.2,0.5c-0.3,0.7-0.7,1.4-1.1,2
			c-0.2,0.4-0.6,0.9-0.9,0.9c-1.5,0.1-0.8,0.9-0.5,1.5c0.4,0.7,0.8,1.5,1.3,2.1c0.6,0.8,0.4,1.2-0.5,1.4c-0.6,0.1-1.1-0.1-1.7-0.2
			c-0.6-0.1-1.1-0.1-0.8,0.8c0.2,0.5-0.1,0.8-0.6,1c-2.7,0.9-5.2,2.3-8,2.8c-0.9,0.2-1.5,0.6-1.2,1.7c0.2,0.6,0.2,1.2,0.3,1.8
			c0.1,0.5,0.3,0.9,0.8,1.1c2.5,0.7,3.7,2.6,4.7,4.8c0.4,0.9,1,1.7,1.4,2.6c0.4,0.9,1.1,1.2,1.9,1.4c5,1.1,9.7,2.9,13.8,6
			c0.4,0.3,0.8,0.3,1.3,0.3c1.1-0.1,2.2,0.3,3.3,0.5c1.2,0.2,2.1,1.1,2.7,2.3c1,2,1.8,4.1,2.5,6.3c0,0.1,0,0.2,0,0.2
			c-14.9,0-29.8,0-44.7,0v6.4h55.1V-5.6H50.1z"/>
		<path fill="#FFFFFF" d="M92.4,93.5c-0.6-1.2-1.5-2.1-2.7-2.3c-1.1-0.2-2.1-0.6-3.3-0.5c-0.4,0-0.9,0-1.3-0.3
			c-4.1-3.1-8.8-4.9-13.8-6c-0.9-0.2-1.5-0.5-1.9-1.4c-0.4-0.9-1-1.7-1.4-2.6c-1-2.1-2.2-4.1-4.7-4.8c-0.5-0.1-0.8-0.5-0.8-1.1
			c-0.1-0.6-0.1-1.2-0.3-1.8c-0.3-1.1,0.3-1.5,1.2-1.7c2.8-0.5,5.3-1.9,8-2.8c0.5-0.2,0.8-0.4,0.6-1c-0.3-0.8,0.2-0.9,0.8-0.8
			c0.6,0.1,1.1,0.3,1.7,0.2c1-0.2,1.1-0.6,0.5-1.4c-0.5-0.7-0.9-1.4-1.3-2.1c-0.3-0.6-1-1.4,0.5-1.5c0.3,0,0.7-0.6,0.9-0.9
			c0.4-0.6,0.8-1.3,1.1-2c0.3-0.6,0.5-0.8,1.2-0.5c0.6,0.3,1.2,0.7,2.2,0.6c-0.9-1.1-1.9-2-2.3-3.3c-0.1-0.4-0.3-0.9,0-1.1
			c0.4-0.3,0.6,0.2,0.9,0.4c1.9,1.6,3.9,2.8,6.3,3.5c-0.4-0.5-0.8-0.8-1.3-1.2c-2.6-2.2-5-4.7-6.1-7.9c-1.5-4.2-3-8.4-3.4-12.9
			c-0.4-4.6-1-9.2-2.1-13.8c-0.6-2.9-1.2-6-3.5-8c-2.6-2.2-5.4-4.1-8.7-5.3c-2.8-1.1-5.7-1.8-8.6-1.8v0c-0.1,0-0.2,0-0.3,0
			c-0.1,0-0.2,0-0.3,0v0c-3,0.1-5.8,0.8-8.6,1.8c-3.2,1.2-6.1,3.1-8.7,5.3c-2.3,2-2.9,5.1-3.5,8c-1,4.5-1.7,9.2-2.1,13.8
			c-0.4,4.5-1.9,8.7-3.4,12.9c-1.1,3.2-3.5,5.7-6.1,7.9c-0.4,0.4-0.9,0.8-1.3,1.2c2.4-0.7,4.4-1.9,6.3-3.5c0.3-0.2,0.5-0.7,0.9-0.4
			c0.3,0.3,0.1,0.7,0,1.1c-0.4,1.3-1.4,2.2-2.3,3.3c1,0.2,1.6-0.3,2.2-0.6c0.7-0.3,0.9-0.1,1.2,0.5c0.3,0.7,0.7,1.4,1.1,2
			c0.2,0.4,0.6,0.9,0.9,0.9c1.5,0.1,0.8,0.9,0.5,1.5c-0.4,0.7-0.8,1.5-1.3,2.1c-0.6,0.8-0.4,1.2,0.5,1.4c0.6,0.1,1.1-0.1,1.7-0.2
			c0.6-0.1,1.1-0.1,0.8,0.8c-0.2,0.5,0.1,0.8,0.6,1c2.7,0.9,5.2,2.3,8,2.8c0.9,0.2,1.5,0.6,1.2,1.7c-0.2,0.6-0.2,1.2-0.3,1.8
			c-0.1,0.5-0.3,0.9-0.8,1.1c-2.5,0.7-3.7,2.6-4.7,4.8c-0.4,0.9-1,1.7-1.4,2.6c-0.4,0.9-1.1,1.2-1.9,1.4c-5,1.1-9.7,2.9-13.8,6
			c-0.4,0.3-0.8,0.3-1.3,0.3c-1.1-0.1-2.2,0.3-3.3,0.5c-1.2,0.2-2.1,1.1-2.7,2.3c-1,2-1.8,4.1-2.5,6.3c0,0.1,0,0.2,0,0.2
			c14.7,0,29.4,0,44.1,0c0.2,0,0.4,0,0.6,0c14.7,0,29.4,0,44.1,0c0-0.1,0-0.2,0-0.2C94.2,97.7,93.4,95.5,92.4,93.5z"/>
	</g>
</g>

</svg>
