<?xml version="1.0" encoding="utf-8"?>
<!-- Generator: Adobe Illustrator 17.1.0, SVG Export Plug-In . SVG Version: 6.00 Build 0)  -->
<!DOCTYPE svg PUBLIC "-//W3C//DTD SVG 1.1//EN" "http://www.w3.org/Graphics/SVG/1.1/DTD/svg11.dtd">
<svg version="1.1" xmlns="http://www.w3.org/2000/svg" xmlns:xlink="http://www.w3.org/1999/xlink" x="0px" y="0px"
	 viewBox="0 0 100 100" enable-background="new 0 0 100 100" xml:space="preserve">
<g id="Calque_7">
	<g>
		<path fill="#FFFFFF" d="M0,0v100h100V0H0z M80.3,75h-60c-2.8,0-5-2.2-5-5s2.2-5,5-5h60c2.8,0,5,2.2,5,5S83.1,75,80.3,75z M80.3,55
			h-60c-2.8,0-5-2.2-5-5s2.2-5,5-5h60c2.8,0,5,2.2,5,5S83.1,55,80.3,55z M80.3,35h-60c-2.8,0-5-2.2-5-5s2.2-5,5-5h60
			c2.8,0,5,2.2,5,5S83.1,35,80.3,35z"/>
	</g>
</g>
</svg>
