<?xml version="1.0" encoding="utf-8"?>
<!-- Generator: Adobe Illustrator 17.1.0, SVG Export Plug-In . SVG Version: 6.00 Build 0)  -->
<!DOCTYPE svg PUBLIC "-//W3C//DTD SVG 1.1//EN" "http://www.w3.org/Graphics/SVG/1.1/DTD/svg11.dtd">
<svg version="1.1" xmlns="http://www.w3.org/2000/svg" xmlns:xlink="http://www.w3.org/1999/xlink" x="0px" y="0px"
	 viewBox="0 0 100 100" enable-background="new 0 0 100 100" xml:space="preserve">
<g id="Calque_1">
	<g>
		<path fill="#FFFFFF" d="M81.7,52.2c2.9-5.9,2.6-11.5-2.4-16.1c-3.6-3.4-9-3.9-13.9-0.8c-1.3-2.1-2.5-4.4-4-6.4
			c-3.9-5-9.1-7.9-15.5-8.5C39.6,19.7,34,21.2,29,25.1c-4.9,3.9-7.7,8.9-8.6,15.1c-0.1,0.9,0.1,2-0.4,2.6c-0.5,0.5-1.6,0.4-2.5,0.6
			C9.4,45.2,4.9,53.8,8.2,61.6c2.2,5,6.1,7.7,11.6,8.1c0.4,0,0.8,0.2,1.1,0.4c1.6,1.7,3.1,3.5,4.6,5.2c0.1,0.1,0.1,0.3,0.2,0.5
			C19.8,76,14.1,76.3,9,72.7C1.7,67.4-1.3,57.3,2.7,49C5,44,8.8,40.4,14,38.5c0.7-0.3,1-0.6,1.1-1.4c0.6-5.5,2.8-10.3,6.6-14.3
			c6.5-7,14.7-9.5,24.1-8.7c4.6,0.4,9,1.6,12.9,4c3.6,2.2,6.4,5.3,8.2,9.1c0.3,0.7,0.7,0.8,1.3,0.6c6.4-1.9,11.9-0.2,16.4,4.5
			c3.7,3.9,5,8.6,4.1,14c0,0.2-0.1,0.5-0.1,0.7c0,0.1,0,0.1,0,0.2c1.3,0.5,2.6,1,3.7,1.7c3.6,2.2,5.6,5.5,6.3,9.6
			c0.9,5.3-0.6,9.9-4.4,13.6c-2.6,2.5-5.7,3.8-9.3,3.9c-6.6,0.1-13.2,0-19.9,0c-0.3,0-0.5-0.1-0.9-0.1c0.6-0.7,1.1-1.4,1.6-2
			c1-1.1,2-2.2,2.9-3.4c0.5-0.6,1-0.8,1.8-0.8c4.4,0,8.9,0.1,13.3,0c3.6,0,6.4-1.6,8-5c1.5-3.3,1.2-6.5-1.1-9.3
			c-2-2.5-4.8-3.5-8-3.1c-0.2,0-0.5,0-0.7,0.1C81.9,52.3,81.8,52.2,81.7,52.2z"/>
		<path fill="#FFFFFF" d="M36.9,51.1c0-2.5,0-5,0-7.5c0-2.1,1.3-3.5,3.4-3.5c3.1,0,6.1,0,9.2,0c2.1,0,3.4,1.4,3.4,3.5
			c0,4.9,0,9.8,0,14.6c0,1.7-0.2,1.5,1.6,1.5c2.8,0,5.6,0,8.4,0c0.6,0,1.3,0.1,1.9,0.4c1.5,0.8,1.6,2.1,0.5,3.4
			c-3.2,3.8-6.4,7.5-9.7,11.3c-2.6,3-5.2,5.9-7.7,8.8c-0.1,0.1-0.3,0.2-0.3,0.4c-1.1,2-3.6,2.2-5.4,0c-1.8-2.3-3.8-4.4-5.7-6.7
			c-3-3.4-6-6.9-8.9-10.3c-1-1.1-1.9-2.2-2.9-3.3c-0.6-0.7-1.2-1.4-0.7-2.4c0.5-1,1.3-1.6,2.5-1.6c2.9,0,5.8,0,8.7,0
			c2,0,1.7,0.2,1.8-1.7C37,55.8,36.9,53.5,36.9,51.1z"/>
	</g>
</g>

</svg>
