<?xml version="1.0" encoding="utf-8"?>
<!-- Generator: Adobe Illustrator 17.1.0, SVG Export Plug-In . SVG Version: 6.00 Build 0)  -->
<!DOCTYPE svg PUBLIC "-//W3C//DTD SVG 1.1//EN" "http://www.w3.org/Graphics/SVG/1.1/DTD/svg11.dtd">
<svg version="1.1" id="Calque_1" xmlns="http://www.w3.org/2000/svg" xmlns:xlink="http://www.w3.org/1999/xlink" x="0px" y="0px"
	 viewBox="0 0 850.4 850.4" enable-background="new 0 0 850.4 850.4" xml:space="preserve">
<g>
	<rect x="425.5" y="630.6" fill="none" width="0" height="0"/>
	<rect x="425.5" y="222.3" fill="none" width="0" height="0"/>
	<path fill="#DFD839" d="M221.4,18.1c-112.7,0-204.1,91.4-204.1,204.2c0,112.7,91.4,204.1,204.1,204.1c0,0,0,0,0,0v-0.1
		c0-112.7,91.4-204,204.1-204c0,0,0,0,0,0C425.5,109.5,334.1,18.1,221.4,18.1z"/>
	<path fill="#DFD839" d="M629.7,18.2c-112.7,0-204.1,91.4-204.1,204.2c0,0,0,0,0,0c0,0,0,0,0,0c112.7,0,204.1,91.3,204.1,204.1v0.1
		c112.7,0,204.2-91.4,204.2-204.1C833.8,109.5,742.4,18.2,629.7,18.2z"/>
	<path fill="#DFD839" d="M221.4,426.5L221.4,426.5C221.4,426.4,221.4,426.4,221.4,426.5c-112.8-0.1-204.2,91.3-204.2,204.1
		c0,112.7,91.4,204.2,204.1,204.2c112.8,0,204.2-91.4,204.2-204.2c0,0,0,0,0,0v0C312.8,630.6,221.4,539.3,221.4,426.5z"/>
	<path fill="#DFD839" d="M629.7,426.4L629.7,426.4c0,112.8-91.4,204.2-204.1,204.2h0h0c0,0,0,0,0,0c0,112.7,91.4,204.2,204.1,204.2
		c112.7,0,204.2-91.4,204.2-204.2C833.8,517.9,742.4,426.4,629.7,426.4z"/>
	<polygon fill="#DBD643" points="425.5,630.6 425.5,630.6 425.5,630.6 	"/>
	<path fill="#33B5B4" d="M425.5,630.6L425.5,630.6c0-112.8,91.4-204.2,204.1-204.2c0,0,0,0,0,0v0c0,0,0,0,0,0
		c-112.7,0-204.1-91.4-204.1-204.1c0,0,0,0,0,0l0,0c0,0,0,0,0,0c0,112.7-91.4,204.1-204.1,204.1v0
		C334.1,426.4,425.5,517.9,425.5,630.6z"/>
	<path fill="#24A04D" d="M425.5,222.3C425.5,222.3,425.5,222.3,425.5,222.3c-112.7,0-204.1,91.3-204.1,204v0.1
		C334.1,426.4,425.5,335.1,425.5,222.3z"/>
	<path fill="#24A04D" d="M425.6,222.3C425.5,222.3,425.5,222.3,425.6,222.3C425.5,222.3,425.5,222.3,425.6,222.3
		c0,112.7,91.4,204.1,204.1,204.1c0,0,0,0,0,0v-0.1C629.6,313.7,538.3,222.3,425.6,222.3z"/>
	<path fill="#24A04D" d="M425.5,630.6c0-112.8-91.4-204.2-204.1-204.2v0.1C221.4,539.3,312.8,630.6,425.5,630.6z"/>
	<path fill="#24A04D" d="M425.5,630.6C425.5,630.6,425.5,630.6,425.5,630.6L425.5,630.6c112.7,0,204.1-91.4,204.1-204.1v-0.1
		c0,0,0,0,0,0C516.9,426.4,425.5,517.9,425.5,630.6z"/>
</g>
</svg>
