<?xml version="1.0" encoding="utf-8"?>
<!-- Generator: Adobe Illustrator 17.1.0, SVG Export Plug-In . SVG Version: 6.00 Build 0)  -->
<!DOCTYPE svg PUBLIC "-//W3C//DTD SVG 1.1//EN" "http://www.w3.org/Graphics/SVG/1.1/DTD/svg11.dtd">
<svg version="1.1" xmlns="http://www.w3.org/2000/svg" xmlns:xlink="http://www.w3.org/1999/xlink" x="0px" y="0px"
	 viewBox="0 0 100 100" enable-background="new 0 0 100 100" xml:space="preserve">

<g id="Calque_4">
	<g>
		<path fill="#FFFFFF" d="M46.5,1.2c2.2,0,4.3,0,6.5,0c0.2,0.1,0.3,0.2,0.5,0.2c1.6,0.6,2.6,1.7,2.9,3.3c0.3,1.9,0.6,3.8,0.8,5.7
			c0.3,2.3,1.5,3.9,3.6,4.8c1.9,0.8,3.9,1.6,5.8,2.4c2,0.8,3.8,0.6,5.4-0.7c1.6-1.2,3.2-2.4,4.9-3.6c1.7-1.2,3.7-1.1,5.2,0.4
			c1.2,1.2,2.5,2.5,3.7,3.7c1.6,1.6,1.7,3.6,0.4,5.4c-1.2,1.6-2.4,3.2-3.6,4.8c-1.2,1.6-1.4,3.4-0.7,5.3c0.8,1.9,1.6,3.8,2.3,5.7
			c0.9,2.4,2.6,3.6,5.1,3.9c1.9,0.2,3.7,0.5,5.5,0.8c2,0.3,3,1.7,3.5,3.6c0,2,0,4,0,6.1c0,0.1-0.1,0.2-0.1,0.2
			c-0.6,2.1-1.7,3.1-3.8,3.4c-1.8,0.3-3.7,0.5-5.5,0.8c-2.2,0.3-3.7,1.5-4.6,3.6c-0.8,1.9-1.6,3.9-2.4,5.8c-0.8,1.9-0.6,3.8,0.7,5.4
			c1.2,1.6,2.4,3.1,3.5,4.7c1.3,1.8,1.2,3.8-0.4,5.4c-1.2,1.2-2.4,2.4-3.6,3.6c-1.6,1.6-3.6,1.8-5.5,0.4c-1.6-1.2-3.1-2.4-4.7-3.5
			c-1.5-1.1-3.2-1.5-5-0.8c-2.3,0.9-4.5,1.8-6.7,2.8c-1.6,0.7-2.7,2-3,3.8c-0.3,1.8-0.6,3.6-0.8,5.4c-0.2,2.3-1.3,3.9-3.5,4.6
			c-2.2,0-4.3,0-6.5,0c-0.1-0.1-0.2-0.1-0.3-0.2c-1.8-0.6-2.9-1.8-3.1-3.8c-0.2-1.9-0.5-3.7-0.8-5.6c-0.3-2.2-1.5-3.6-3.5-4.5
			c-2-0.8-3.9-1.6-5.9-2.4c-2-0.9-3.9-0.6-5.6,0.7c-1.5,1.1-3,2.3-4.6,3.4c-0.6,0.4-1.3,0.7-2,0.6c-1.7,0-3.2-0.5-4.5-1.8
			c-1.1-1.1-2.2-2.3-3.3-3.4c-0.9-0.9-1-1.9-0.6-3.1c0.2-0.6,0.6-1.2,0.9-1.7c1.2-1.6,2.4-3.2,3.6-4.8c1.2-1.6,1.4-3.4,0.7-5.3
			c-0.8-2-1.6-4-2.4-5.9c-0.8-2-2.2-3.2-4.3-3.5c-0.7-0.1-1.3-0.2-2-0.3c-1.4-0.2-2.8-0.3-4.2-0.6c-2-0.4-3-1.7-3.5-3.6
			c0-2,0-4,0-6.1c0.6-2.5,2.3-3.6,4.8-3.8c1.7-0.2,3.4-0.4,5.2-0.7c1.9-0.3,3.2-1.4,3.9-3.2c0.9-2,1.7-4.1,2.5-6.1
			c0.8-2,0.6-3.8-0.7-5.5c-1.2-1.6-2.4-3.2-3.6-4.8c-1.2-1.6-1.1-3.7,0.4-5.2c1.2-1.2,2.4-2.5,3.7-3.7c1.6-1.6,3.6-1.7,5.4-0.4
			c1.7,1.2,3.3,2.5,4.9,3.7c1.5,1.1,3.2,1.3,5,0.6c2.1-0.8,4.2-1.7,6.3-2.6c1.8-0.8,2.9-2.1,3.2-4c0.1-0.7,0.2-1.4,0.3-2.2
			c0.2-1.4,0.4-2.9,0.6-4.3C43.5,2.7,44.8,1.8,46.5,1.2z M61.9,49.7c0-6.6-5.5-12.1-12.1-12.1c-6.7,0-12.1,5.4-12.2,12.1
			c0,6.7,5.5,12.2,12.2,12.2C56.4,61.9,61.9,56.4,61.9,49.7z"/>
	</g>
</g>

</svg>
