<?xml version="1.0" encoding="utf-8"?>
<!-- Generator: Adobe Illustrator 17.1.0, SVG Export Plug-In . SVG Version: 6.00 Build 0)  -->
<!DOCTYPE svg PUBLIC "-//W3C//DTD SVG 1.1//EN" "http://www.w3.org/Graphics/SVG/1.1/DTD/svg11.dtd">
<svg version="1.1" id="Calque_1" xmlns="http://www.w3.org/2000/svg" xmlns:xlink="http://www.w3.org/1999/xlink" x="0px" y="0px"
	 viewBox="0 0 100 30" enable-background="new 0 0 100 30" xml:space="preserve">
<path opacity="0.4" fill="#EB2259" d="M14,28L14,28c0-7.2,5.8-13,13-13l0,0l0,0l0,0c-7.2,0-13-5.8-13-13l0,0l0,0l0,0
	c0,7.2-5.8,13-13,13l0,0C8.2,15,14,20.8,14,28z"/>
<path opacity="0.4" fill="#EB2259" d="M86,28L86,28c0-7.2,5.8-13,13-13l0,0l0,0l0,0c-7.2,0-13-5.8-13-13l0,0l0,0l0,0
	c0,7.2-5.8,13-13,13l0,0C80.1,15,86,20.8,86,28z"/>
<path opacity="0.4" fill="#EB2259" d="M50,28L50,28c0-7.2,5.8-13,13-13l0,0l0,0l0,0c-7.2,0-13-5.8-13-13l0,0l0,0l0,0
	c0,7.2-5.8,13-13,13l0,0C44.2,15,50,20.8,50,28z"/>
</svg>
