<?xml version="1.0" encoding="utf-8"?>
<!-- Generator: Adobe Illustrator 17.1.0, SVG Export Plug-In . SVG Version: 6.00 Build 0)  -->
<!DOCTYPE svg PUBLIC "-//W3C//DTD SVG 1.1//EN" "http://www.w3.org/Graphics/SVG/1.1/DTD/svg11.dtd">
<svg version="1.1" xmlns="http://www.w3.org/2000/svg" xmlns:xlink="http://www.w3.org/1999/xlink" x="0px" y="0px"
	 viewBox="0 0 600 600" enable-background="new 0 0 600 600" xml:space="preserve">
<g id="Calque_2" display="none">
	<circle display="inline" fill="#22B573" cx="301.5" cy="300" r="300"/>
</g>
<g id="Calque_1">
	<g id="_x38_AL5nD_1_">
		<g>
			<g>
				<path fill="#FFFFFF" d="M471.9,464.1c-113.6,0-227.1,0-340.7,0c-6.4-3-11-7-11-14.9c0.1-95.9,0.1-191.9,0.1-287.8
					c0-11.1,5-16.2,16-16.3c12.8-0.1,25.5,0,38.3,0c1.4,0,2.7,0.3,4.3,0.4c0,2.2,0,4,0,5.8c0.3,11.1-0.4,22.4,1,33.3
					c2.5,19.6,23.1,33.6,42.3,29.6c18.2-3.7,30.5-18.8,30.6-37.7c0.1-10.4,0-20.7,0-31.1c32.3,0,63.9,0,96.2,0
					c0,12.1-0.6,23.8,0.1,35.4c1.1,19.7,17.7,34.4,37.5,34c18.5-0.3,34.8-16.2,35.6-35.1c0.4-9.5,0.1-19,0.1-28.6c0-1.9,0-3.8,0-6.2
					c14.4,0,28,0.3,41.6-0.1c9.3-0.3,15.6,3,18.6,11.9c0,98.1,0,196.2,0,294.3C481.3,457.3,477.5,461.4,471.9,464.1z M148.6,435.6
					c102.1,0,203.7,0,305.4,0c0-60.9,0-121.5,0-182.2c-102,0-203.5,0-305.4,0C148.6,314.2,148.6,374.7,148.6,435.6z"/>
				<path fill="#FFFFFF" d="M388.9,102.9c10.6,3.6,15,11,14.7,22.1c-0.4,17.8,0,35.5-0.3,53.3c-0.1,8.8-6.1,15.6-14.2,17.2
					c-7.9,1.6-16.1-2.3-19.5-10c-1.3-2.8-1.7-6.2-1.7-9.4c-0.2-18.1-0.1-36.3-0.1-54.4c0-10.1,5.9-15.6,14.7-18.9
					C384.6,102.9,386.7,102.9,388.9,102.9z"/>
				<path fill="#FFFFFF" d="M218.5,102.9c12.5,5.1,15.4,9.8,15.3,23.7c-0.2,17.1,0,34.1-0.2,51.2c-0.1,8.7-5.4,15.3-13.4,17.4
					c-7.4,2-15.5-1-19.4-8.1c-1.7-3.1-2.6-7.1-2.7-10.7c-0.3-17.1-0.1-34.1-0.1-51.2c0-13.1,3.1-17.7,15-22.3
					C214.9,102.9,216.7,102.9,218.5,102.9z"/>
			</g>
		</g>
	</g>
	<rect x="358" y="277" fill="#FFFFFF" width="22" height="148"/>
	<rect x="296" y="339" fill="#FFFFFF" width="148" height="22"/>
</g>
</svg>
