<?xml version="1.0" encoding="utf-8"?>
<!-- Generator: Adobe Illustrator 17.1.0, SVG Export Plug-In . SVG Version: 6.00 Build 0)  -->
<!DOCTYPE svg PUBLIC "-//W3C//DTD SVG 1.1//EN" "http://www.w3.org/Graphics/SVG/1.1/DTD/svg11.dtd">
<svg version="1.1" xmlns="http://www.w3.org/2000/svg" xmlns:xlink="http://www.w3.org/1999/xlink" x="0px" y="0px"
	 viewBox="0 0 100 100" enable-background="new 0 0 100 100" xml:space="preserve">

<g id="Calque_7">
	<g id="B8gbfe_2_">
		<g>
			<path fill="#FFFFFF" d="M22.9,21.8c18.3,0,36.6,0,55,0c0,0,0.1,0.1,0.1,0.1c3.2,0.9,4.6,2.7,4.6,6c0,11.1,0,22.2,0,33.3
				c0,3.6-2.3,5.9-5.9,5.9c-9.7,0-19.3,0-29,0c-0.6,0-1,0.2-1.3,0.6c-3.2,3.2-6.4,6.4-9.6,9.6c-1,1-2.1,1.3-3.3,0.8
				c-1.2-0.6-1.7-1.6-1.7-2.9c0-2.4,0-4.8,0-7.2c0-0.3,0-0.5,0-0.8c-0.4,0-0.6,0-0.9,0c-2.5,0-4.9,0-7.4,0c-3,0-5.4-2.4-5.5-5.4
				c0-11.5,0-22.9,0-34.4c0-2.2,1.1-3.9,3.1-4.9C21.8,22.1,22.3,22,22.9,21.8z M50.3,42.4c-1.9,0-3.4,1.5-3.4,3.4
				c0,1.9,1.5,3.4,3.4,3.4c1.9,0,3.5-1.5,3.5-3.4C53.8,43.9,52.2,42.4,50.3,42.4z M62.7,42.4c-1.9,0-3.4,1.5-3.4,3.4
				c0,1.9,1.5,3.4,3.4,3.5c1.9,0,3.5-1.5,3.5-3.4C66.1,43.9,64.6,42.4,62.7,42.4z M38,42.4c-1.9,0-3.4,1.4-3.4,3.4
				c0,1.9,1.5,3.4,3.3,3.5c1.9,0,3.5-1.5,3.5-3.4C41.4,43.9,39.9,42.4,38,42.4z"/>
		</g>
	</g>
</g>

</svg>
