<?xml version="1.0" encoding="utf-8"?>
<!-- Generator: Adobe Illustrator 17.1.0, SVG Export Plug-In . SVG Version: 6.00 Build 0)  -->
<!DOCTYPE svg PUBLIC "-//W3C//DTD SVG 1.1//EN" "http://www.w3.org/Graphics/SVG/1.1/DTD/svg11.dtd">
<svg version="1.1" xmlns="http://www.w3.org/2000/svg" xmlns:xlink="http://www.w3.org/1999/xlink" x="0px" y="0px"
	 viewBox="0 0 100 100" enable-background="new 0 0 100 100" xml:space="preserve">
<g id="Calque_12">
	<g id="_x36_ANsoO_2_">
		<g>
			<path fill="#FFFFFF" d="M43.5,59.6c1.1-1.6,2-3,3-4.4c6.7-10,13.4-20,20.1-29.9c3-4.5,9.1-4.8,12.6-0.6c2,2.5,2.3,5.9,0.6,8.8
				c-1.8,2.9-3.8,5.8-5.7,8.7c-7.4,11-14.9,22-22.3,33.2c-2.7,4.2-8.5,5.1-12.4,1.5c-5.4-4.9-11-9.8-16.4-14.7
				c-2.3-2.1-3.2-4.8-2.3-7.9c0.9-3,2.9-4.9,6-5.6c2.5-0.5,4.8,0.2,6.7,1.8c2.9,2.6,5.8,5.2,8.8,7.8C42.4,58.7,42.9,59.1,43.5,59.6z
				"/>
		</g>
	</g>
</g>
</svg>
