<?xml version="1.0" encoding="utf-8"?>
<!-- Generator: Adobe Illustrator 17.1.0, SVG Export Plug-In . SVG Version: 6.00 Build 0)  -->
<!DOCTYPE svg PUBLIC "-//W3C//DTD SVG 1.1//EN" "http://www.w3.org/Graphics/SVG/1.1/DTD/svg11.dtd">
<svg version="1.1" xmlns="http://www.w3.org/2000/svg" xmlns:xlink="http://www.w3.org/1999/xlink" x="0px" y="0px"
	 viewBox="0 0 100 100" enable-background="new 0 0 100 100" xml:space="preserve">
<g id="Calque_8">
	<g id="HJjmtS_1_">
		<g>
			<path fill="#FFFFFF" d="M21.5,24.6c19.3,0,38.6,0,57.8,0c0.8,0.4,1.5,0.7,2.4,1.2c-10.6,9.1-21,18-31.4,26.9
				c-10.5-9-20.9-17.9-31.4-27C19.9,25.3,20.7,25,21.5,24.6z"/>
			<path fill="#FFFFFF" d="M79.2,71.5c-19.2,0-38.5,0-57.7,0c-0.8-0.4-1.6-0.7-2.6-1.2c7.9-6.8,15.6-13.4,23.3-20
				c2.7,2.4,5.4,4.7,8.1,7.1c2.7-2.4,5.4-4.7,8.1-7.1c7.8,6.7,15.5,13.3,23.3,20C80.8,70.8,80,71.1,79.2,71.5z"/>
			<path fill="#FFFFFF" d="M83.1,67.7c-7.5-6.4-15-12.8-22.6-19.3c7.6-6.6,15.1-13.1,22.6-19.7C83.1,41.7,83.1,54.7,83.1,67.7z"/>
			<path fill="#FFFFFF" d="M17.5,28.9c0.2,0.1,0.3,0.2,0.5,0.3c7.3,6.3,14.5,12.6,21.8,19c0.1,0.1,0.2,0.2,0.3,0.3
				c-7.6,6.4-15.1,12.8-22.6,19.3C17.5,54.7,17.5,41.8,17.5,28.9z"/>
		</g>
	</g>
</g>
</svg>
