<?xml version="1.0" encoding="utf-8"?>
<!-- Generator: Adobe Illustrator 17.1.0, SVG Export Plug-In . SVG Version: 6.00 Build 0)  -->
<!DOCTYPE svg PUBLIC "-//W3C//DTD SVG 1.1//EN" "http://www.w3.org/Graphics/SVG/1.1/DTD/svg11.dtd">
<svg version="1.1" xmlns="http://www.w3.org/2000/svg" xmlns:xlink="http://www.w3.org/1999/xlink" x="0px" y="0px"
	 viewBox="0 0 100 100" enable-background="new 0 0 100 100" xml:space="preserve">

<g id="Calque_9">
	<g id="rWUmvQ_2_">
		<g>
			<path fill="#FFFFFF" d="M27.2,36c0-10.5,4.2-16.8,13.1-20.4c2.7-1.1,4.3-0.5,5.5,2.2c1.7,3.7,3.4,7.5,5.1,11.3
				c1.2,2.7,0.6,4.3-2.1,5.5c-1.7,0.8-3.4,1.5-5,2.3c-2.4,1.2-3.3,3.2-2.2,5.7c3.1,7,6.3,14.1,9.5,21.1c1.2,2.6,3.2,3.2,5.9,2.1
				c1.7-0.7,3.3-1.5,5-2.2c2.5-1,4.2-0.5,5.3,1.9c1.8,3.9,3.6,7.8,5.3,11.7c1.1,2.6,0.5,4.1-2,5.4C59.7,88.2,50,83.9,43.9,76
				c-8.5-11.1-14.5-23.5-16.6-37.5C27.2,37.5,27.2,36.4,27.2,36z"/>
		</g>
	</g>
</g>

</svg>
