<?xml version="1.0" encoding="utf-8"?>
<!-- Generator: Adobe Illustrator 17.1.0, SVG Export Plug-In . SVG Version: 6.00 Build 0)  -->
<!DOCTYPE svg PUBLIC "-//W3C//DTD SVG 1.1//EN" "http://www.w3.org/Graphics/SVG/1.1/DTD/svg11.dtd">
<svg version="1.1" xmlns="http://www.w3.org/2000/svg" xmlns:xlink="http://www.w3.org/1999/xlink" x="0px" y="0px"
	 viewBox="0 0 100 100" enable-background="new 0 0 100 100" xml:space="preserve">

<g id="Calque_7">
	<g>
		<path fill="#C4CCDF" d="M32.4,77.4c0.6-1.8,1.6-3.6,2.2-5.3c1.2-3.2,2.7-7.1,0.2-10.7c-0.5-0.8-1.1-1.6-1.3-2.5
			c-1.6-5.7-4.4-11-5-16.9c-0.1-0.7-0.3-1.6,0.1-2c3.2-3,1.2-6.6,1.1-9.7C29.1,18.9,31.7,14.6,40,10c5.3-3,10.9-4.7,16.8-5.6
			c1.1-0.2,2.2,0,3.4,0C60,5.8,58,6.4,58.8,8c0.6,1.3,1.9,2,3,2.7c7.7,4.9,9.4,12.1,8.3,20.7c-0.3,2.8-0.6,5.7,0.9,8.8
			c1.3,2.7-0.1,6.4-1.3,9.3c-0.6,1.5-1.3,3.1-1.8,4.7c-0.8,2.6-1.5,5.2-3.1,7.5c-1.7,2.5-0.7,9.1,1.4,11.3c0.9,0.9,0.8,2.2,1,3.4
			c0.5,2.4,1.7,3.9,4.1,5c7,3.2,14.3,6,21.4,9.1c2.5,1.1,4.9,2.5,7.3,3.8V0H0v94c9.3-5.3,19.7-8.3,29.2-13
			C30.9,80.2,31.9,79.1,32.4,77.4z"/>
		<path fill="#FFFFFF" d="M100,94.2c-2.4-1.3-4.8-2.7-7.3-3.8c-7.1-3.1-14.3-5.8-21.4-9.1c-2.4-1.1-3.6-2.6-4.1-5
			c-0.2-1.1-0.1-2.4-1-3.4c-2.1-2.2-3.1-8.8-1.4-11.3c1.5-2.3,2.3-4.9,3.1-7.5c0.5-1.6,1.1-3.1,1.8-4.7c1.2-2.9,2.7-6.6,1.3-9.3
			c-1.5-3.1-1.3-5.9-0.9-8.8c1-8.5-0.7-15.7-8.3-20.7c-1.1-0.7-2.4-1.4-3-2.7C58,6.4,60,5.8,60.2,4.4c-1.2,0-2.3-0.2-3.4,0
			C50.9,5.4,45.2,7.1,40,10c-8.2,4.6-10.9,8.9-10.2,20.2c0.2,3.2,2.1,6.8-1.1,9.7c-0.3,0.3-0.1,1.3-0.1,2c0.6,5.9,3.4,11.3,5,16.9
			c0.2,0.9,0.8,1.7,1.3,2.5c2.5,3.6,1,7.5-0.2,10.7c-0.6,1.6-1.6,3.4-2.2,5.3c-0.5,1.7-1.5,2.9-3.2,3.7C19.7,85.7,9.3,88.7,0,94v6
			h100V94.2z"/>
	</g>
</g>

</svg>
