<?xml version="1.0" encoding="utf-8"?>
<!-- Generator: Adobe Illustrator 17.1.0, SVG Export Plug-In . SVG Version: 6.00 Build 0)  -->
<!DOCTYPE svg PUBLIC "-//W3C//DTD SVG 1.1//EN" "http://www.w3.org/Graphics/SVG/1.1/DTD/svg11.dtd">
<svg version="1.1" id="Calque_1" xmlns="http://www.w3.org/2000/svg" xmlns:xlink="http://www.w3.org/1999/xlink" x="0px" y="0px"
	 viewBox="0 0 100 100" enable-background="new 0 0 100 100" xml:space="preserve">
<g id="X2rRva_1_">
	<g>
		<path fill="#FFFFFF" d="M49.3,8.8c0.5,0,0.9,0,1.4,0c0.6,0.1,1.2,0.2,1.8,0.4c3.3,1.1,5.2,3.9,5.2,7.6c0,13.7,0,27.4,0,41.1
			c0,8.5,0,16.9,0,25.4c0,2.7-0.9,5.1-3.2,6.6c-1.1,0.7-2.5,1-3.8,1.5c-0.5,0-0.9,0-1.4,0c-0.2-0.1-0.4-0.1-0.7-0.2
			c-1.5-0.3-2.8-0.8-3.8-1.9c-1.9-2-3.7-4.1-5.6-6c-4.3-4.4-8.7-8.6-13.6-12.3c-1.8-1.3-3.8-2.1-6.1-2.1c-2.2,0-4.4,0-6.6,0
			c-3.4,0-6.2-2-7.3-5c-0.2-0.5-0.3-0.9-0.4-1.4c0-8.2,0-16.4,0-24.6c0.1-0.2,0.1-0.3,0.2-0.5c0.8-3.3,3.2-5.6,6.6-5.9
			c2.4-0.2,4.8-0.1,7.2-0.1c2.4,0,4.5-0.6,6.4-2.1c3.1-2.5,6.2-5,9-7.8c3.3-3.1,6.5-6.4,9.6-9.8c1.2-1.3,2.4-2.3,4.2-2.7
			C48.7,9,49,8.9,49.3,8.8z"/>
		<path fill="#FFFFFF" d="M95.2,52.7c-0.2,1.6-0.4,3.3-0.7,4.9c-1.9,9.9-6.8,18-14.5,24.4c-0.2,0.1-0.3,0.2-0.5,0.4c0,0-0.1,0-0.2,0
			c-1.3-2-2.7-4-4.1-6.1c8-6.9,12.4-15.6,12.4-26.2c0-10.6-4.4-19.3-12.4-26.3c1.3-2,2.7-4.1,4.1-6.2c0.2,0.2,0.5,0.3,0.6,0.5
			c8.9,7.5,14,16.9,15.1,28.6c0,0.3,0.1,0.5,0.2,0.8C95.2,49.2,95.2,51,95.2,52.7z"/>
		<path fill="#FFFFFF" d="M71,70c-1.4-2.1-2.8-4.1-4.2-6.2c3.8-3.8,5.9-8.3,5.9-13.7c0-5.3-2.1-9.8-5.9-13.6
			c1.4-2.1,2.8-4.2,4.2-6.2C83.2,40.5,83.2,59.6,71,70z"/>
	</g>
</g>
</svg>
